<?xml version="1.0" encoding="UTF-8"?>
<svg id="Layer_1" data-name="Layer 1" xmlns="http://www.w3.org/2000/svg" viewBox="0 0 600 600">
  <defs>
    <style>
      .cls-1 {
        fill: #f26722;
      }
    </style>
  </defs>
  <path class="cls-1" d="M472.68,345.85L316.75,26.24c-.08-.17-.18-.34-.28-.5-10.06-15.52-19.42-1.98-20.69,0-.09.15-.17.29-.25.45l-153.83,320.09c-4.48,9.31-.93,21.28-.15,23.67.09.27.2.53.34.77l29.64,52.54c1.09,1.93,3.46,2.72,5.49,1.83,97.51-42.69,102.13,31.06,102.32,35.76,0,.15,0,.29,0,.44l-4.84,76.43c-.12,1.01-.19,2.03-.19,3.06v.22s0,0,0,0c0,16.57,14.72,40.59,32.88,40.59s32.88-24.03,32.88-40.59c0-1.25-.09-2.49-.26-3.7l-5.28-75.64c-.02-.22-.01-.44,0-.66,5.7-75.88,83.95-44.06,102.01-35.67,2.09.97,4.57.12,5.64-1.93l25.95-49.73c.07-.12.14-.25.22-.36,7.45-11.01,5.26-23.77,4.67-26.5-.07-.34-.19-.66-.34-.97ZM303.86,382.52c-25.93-23.33-78.8-22.83-98.13-21.78-3.27.18-5.54-3.19-4.15-6.15l101.12-215.25c1.56-3.32,6.29-3.31,7.83.02l99.82,215.91c1.4,3.03-1.02,6.44-4.34,6.11-56.99-5.75-87.54,14.17-96.52,21.35-1.67,1.34-4.03,1.22-5.62-.21Z"/>
  <path class="cls-1" d="M295.62,220.32l-47.44,109.81c-.27.62.22,1.3.89,1.23,6.11-.64,29.33-2,41.38,12.19.52.62,1.52.29,1.56-.52l5.3-122.32c.04-.98-1.31-1.29-1.7-.39Z"/>
  <path class="cls-1" d="M317.48,220.27l47.68,110.37c.24.56-.21,1.18-.81,1.11-5.91-.63-29.56-2.14-41.66,12.35-.47.56-1.37.26-1.41-.47l-5.33-123.01c-.04-.89,1.18-1.16,1.53-.35Z"/>
</svg>