<?xml version="1.0" encoding="UTF-8"?>
<svg id="Layer_1" data-name="Layer 1" xmlns="http://www.w3.org/2000/svg" viewBox="0 0 600 600">
  <path d="M511.01,143.77l-61.62-61.62s-7.75-8.1-15.15-7.25v159.79s-8.76,35.02-44.45,37.71h-202.04s-40.41-8.75-40.41-41.08V74.9h-47.14s-24.92,7.58-22.22,23.07v396.67s-3.37,27.61,28.96,29.63c32.33,2.02,385.89,0,385.89,0,0,0,26.27-2.02,28.29-31.65V171.38s6.06-14.82-10.1-27.61ZM457.13,459.95c0,14.69-11.91,26.6-26.6,26.6H173.95c-14.69,0-26.6-11.91-26.6-26.6v-100.35c0-14.69,11.91-26.6,26.6-26.6h256.59c14.69,0,26.6,11.91,26.6,26.6v100.35Z"/>
  <path d="M177.65,74.83v142.34c0,11.53,9.35,20.88,20.88,20.88h180.49c10.41,0,18.86-8.44,18.86-18.86V74.83h-220.22ZM363.52,199.66c0,5.95-4.82,10.78-10.78,10.78h-35.69c-5.95,0-10.78-4.82-10.78-10.78v-72.06c0-5.95,4.82-10.78,10.78-10.78h35.69c5.95,0,10.78,4.82,10.78,10.78v72.06Z"/>
</svg>