<?xml version="1.0" encoding="UTF-8"?>
<svg id="Layer_1" data-name="Layer 1" xmlns="http://www.w3.org/2000/svg" viewBox="0 0 600 600">
  <defs>
    <style>
      .cls-1 {
        fill: #fff;
      }
    </style>
  </defs>
  <path class="cls-1" d="M372.88,28.33h-233.16c-15.8,0-28.6,12.8-28.6,28.6v406.22c0,15.8,12.8,28.6,28.6,28.6h321.87c15.8,0,28.6-12.8,28.6-28.6V146.61l-117.31-118.28ZM376.05,295.82h-42.9v145.25c0,9.25-7.5,16.75-16.75,16.75h-33.51c-9.25,0-16.75-7.5-16.75-16.75v-145.25h-47.9c-8.45,0-12.97-9.94-7.43-16.31l78.9-90.71c3.93-4.51,10.93-4.51,14.86,0l78.9,90.71c5.54,6.37,1.02,16.31-7.43,16.31ZM382.83,151.51c-8.61,0-15.59-6.98-15.59-15.59v-61.69l77.19,77.28h-61.59Z"/>
  <rect class="cls-1" x="111.12" y="536.7" width="379.07" height="35.7" rx="17.85" ry="17.85"/>
</svg>