<?xml version="1.0" encoding="UTF-8"?>
<svg id="Caribou" xmlns="http://www.w3.org/2000/svg" viewBox="0 0 600 600">
  <defs>
    <style>
      .cls-1 {
        fill: #fff;
      }
    </style>
  </defs>
  <path class="cls-1" d="M450.87,386.62s25.24,6,11.99,31.48c0,0,1.5,9.24-11.99,11.99,0,0-1,11.99-18.24,12.74,0,0-6.25,2-20.24-6.25,0,0-5.75-1.75-10.24-3,0,0-21.24,7.5-53.97,7.5,0,0-3.75.25-1,14.74,0,0,.25,17.24,1.75,18.99,0,0,1.73,4.5-2.76,1.75,0,0-1.74-3.25-3.24-6.75,0,0,1.75,38.23-5.5,42.23,0,0-2.75-9.74-2.5-15.99,0,0-2.25,24.74-4.5,30.23,0,0-1.75,10.99,0,13.24,0,0,2,7.75-3.75,1.5,0,0-5.5-5-6.25-9.24,0,0-2.75,3.5-2.5,7.75,0,0-3,11.24-4.75,7.25,0,0-2.25-5.75-1.75-10.49,0,0-1.5-6.25-2.5,1.75,0,0-1.66,19.49-8.95,25.99,0,0-7.29,9.74-6.04,2,0,0,2-12.24-1.25-4.75,0,0-3.25,10.24-9.49,14.99,0,0-10.74,12.99-9.24,4,0,0,1-2.5,1-5.75,0,0,2.46-7.75-1.14-1.75,0,0-2.36,8.99-10.85,12.99,0,0-11.99,11.99-18.74,7.25,0,0-4-2.25-7.5-10.74,0,0-8.75-22.49-12.74-24.99,0,0-25.99-28.73-32.98-57.22-7-28.48-9.74-45.72-9.74-45.72,0,0-5-21.99-10.24-31.73,0,0-2.5-9.74,4.75-13.99,0,0,8.75-5.75,13.49-5,0,0-6.5-1.75-5.25-5.75,0,0,1.5-2.25,7.75.5l20.74-.25s16.74.25,34.98-20.24l22.24-24.74s-22.24-7-26.73-32.48c0,0-4.75-17.24-1.5-18.74,0,0,25.49.25,41.48,13.49,0,0,6,4,8.25,7.75,0,0,3.58.75,8.79-2,0,0,4.79.5,0-4,0,0-17.53-15.99-39.02-27.98,0,0-28.48-17.99-38.48-25.74,0,0-15.24-11.99-22.24-16.99,0,0-5-4.25-11.49-6.5,0,0-28.98-7-36.98-16.49,0,0-11.49-11.24-8.25-17.24,0,0,2-2,8.99,5.5,0,0,15.24,10.24,26.24,10.24,0,0,8.25,1,5.75-9.49,0,0-3.5-45.72,4.25-71.21,0,0,5.5-30.48-5.5-42.23,0,0-16.74-13.99-18.99-25.74,0,0-6.5-21.49,3.75-36.73,0,0,4.25-5,2.5,16.24,0,0,1.75,21.74,12.74,22.99,0,0,6,5.25,8.75-11.49,0,0,5.75-22.74,14.49-33.23,0,0,8.75-17.99,15.49-16.99,0,0,3,4-5.5,16.49,0,0-17.99,39.48-5.25,57.47,0,0,3,9.49,17.74-6.75,0,0,14.74-18.99,16.99-27.48,2.25-8.5,14.74-32.23,29.23-38.73,0,0,4.25,1-.75,7.25,0,0-12.74,20.74-10.49,28.98,0,0-2,9.49,16.74,5.25,0,0,18.74-5.25,22.24-8.99,0,0,9.24-7.5,10.24-10.49s11.24-11.99,7.25,2c0,0-3.5,14.24-14.49,22.24,0,0-8.5,8.5-25.74,14.99,0,0-24.24,7.75-45.72,30.48,0,0-36.73,36.48-31.98,85.7,0,0-4.5,35.48,51.22,68.46l51.1,33.48-21.12-22.74s-26.73-12.74-26.24-25.24c0,0,3.25-2.25,7.5,3,0,0,20.49,15.99,18.49,1.5,0,0,.5-24.49,7-37.48,0,0,7.5-21.24,10.99-27.98,0,0,7.83-17.49-1.46-24.74,0,0-27.28-14.49-26.28-25.74,0,0-.5-9.49,10.74,3.75,0,0,13.76,10.99,20.37,8.99,0,0,7.11,1,1.87-11.24,0,0-17.24-31.48-8.99-44.22,0,0,3.75.25,5.5,12.74,0,0,8.99,17.99,19.99,31.23,0,0,2.75,9.49,9.99,1l5-6.5s6.75-11.49,15.74-38.98c0,0,5.25-9.49,7.25-4.75,0,0,2.5,11.49-3,22.24,0,0-1.25,11.74-2.75,14.24,0,0,1.25,7,9.99,1.75,0,0,8.99-5.25,17.49-18.99,0,0,4-5.25,4.25,1.25,0,0,.75,9.49-9.99,20.99,0,0-7,8.99-17.99,15.99,0,0-4.5,1.75-11.99,8.5,0,0-61.7,67.21-42.34,113.44,0,0,22.1,30.48,27.1,24.24,0,0,29.48-7.75,56.72-42.48,0,0,18.74-17.99,14.74-73.21,0,0,4.25-8.99,7,0,0,0,8.25,15.99,5,38.73,0,0-3,18.74,9.49,10.74,0,0,13.99-4,12.74-35.73,0,0,5.5-7.5,7.75,5.25,0,0,6.75,17.24-2.5,29.48,0,0-10.24,14.74.75,10.24,0,0,5.25-.75,8.99-8.25,0,0,6.75-11.74,8.75-15.49,0,0,3.19-7.75,5.34,2.25,0,0-.09,20.49-9.59,27.48,0,0-8.75,9.24-18.24,9.99,0,0-31.98,7.75-39.23,15.74l-55.22,41.48s12.99-5,39.98-4.5c0,0,41.09-2.79,55.22-31.23,0,0,7-17.74,10.74-13.74,0,0,3.25.25-.25,14.24,0,0-1.5,6,3,5.5,0,0,9.49-3.25,12.24-17.74,0,0,3-13.99,7.25-10.74,0,0,4.25-1,1.5,19.74,0,0,0,14.49-18.99,27.23,0,0-6.75,4.07-3.5,8.41,0,0,1.25,5.09,10.49-1.41l5.75-5.5s3-6,5.5-3.75-3.5,15.99-4.75,17.74c0,0-6.25,8-10.74,9.49,0,0-6.75,4.75-2,6.25,0,0,2.75,3.25,10.99-3.25,0,0,3.25-.25-.75,6.75,0,0-2.75,10.49-15.49,8.75,0,0-7.75.75-22.24-10.74,0,0-8.99-8.25-24.24-9.74l-21.99-1s-28.48.5-25.24,6.25c0,0-.75,3,15.74,11.24,0,0,14.24,8.5,17.49,16.74,0,0,8,6,9.99,6,0,0,47.47,24.99,50.72,28.73Z"/>
</svg>