<?xml version="1.0" encoding="UTF-8"?>
<svg id="Elk" xmlns="http://www.w3.org/2000/svg" viewBox="0 0 600 600">
  <defs>
    <style>
      .cls-1 {
        fill: #010101;
      }
    </style>
  </defs>
  <path class="cls-1" d="M511.72,372.32s-3.35-8.79-13.82-12.56l-10.89-5.44s-34.34-22.19-48.99-28.06c0,0-3.35-.42-6.7-9.63,0,0-5.44-6.28-10.89-7.54,0,0-20.52-7.54-15.08-12.14,0,0,4.61-11.73,24.71-17.59,0,0,58.63-20.1,70.77-54.02,0,0,19.68-33.92-1.26-69.09,0,0,9.63,73.7-50.25,94.64l-34.76,12.56s48.99-25.54,51.93-75.79c0,0,2.93-49.83-18.43-74.12,0,0-4.19-2.51-.42,6.7,0,0,15.49,67-7.12,97.57,0,0,5.86-28.06-.42-35.18,0,0-2.09.84-2.93,5.86,0,0-7.96,41.88-24.71,49.83,0,0-17.17-31.83-10.89-56.11,0,0,15.49-70.77-21.78-121.02,0,0-3.35.42,0,10.47,0,0,21.31,85.85-1.49,114.74,0,0-24.54,32.66-78.32-55.28,0,0-4.78-10.05-6.87-5.86,0,0,9.63,53.6,55.69,77.47,0,0-9.63,4.61-11.73,24.71,0,0-2.93,24.29-16.75,23.87,0,0-43.55-21.36-49.83-31.83,0,0-23.87-10.89-21.78-44.81,0,0-8.79-34.34,32.66-123.11,0,0,7.12-13.82,1.26-13.82,0,0-44.39,53.6-51.51,123.95,0,0-1.68,32.66-19.68,19.26,0,0-41.88-24.71-40.2-75.38,0,0,1.26-58.21,28.48-96.73,0,0,1.68-8.79-10.05,3.35,0,0-33.08,27.64-38.11,100.92,0,0-1.68,23.87-21.78,1.68,0,0-12.14-11.73-8.79-58.63,0,0-2.51-4.61-5.86,8.79,0,0-12.98,22.61-2.93,56.11,0,0,2.93,19.68-9.21,25.96,0,0-27.22,22.19-31.83,61.14,0,0,3.35.84,7.12-6.7,0,0,34.76-58.21,64.07-49.41,0,0,13.4,2.51,22.61,17.59,0,0,33.08,33.92,51.51,40.2,0,0,23.87,15.08,41.46,32.24,0,0,34.69,22.61,42.05,24.29,0,0,24.11,15.49,30.81,25.96,0,0-10.89,8.38-17.59,4.61,0,0-19.26-21.78-55.69-28.06,0,0-18.01-3.77-3.35,23.87,0,0,7.12,28.48,30.57,35.59,0,0,13.82,3.77,3.77,12.98,0,0-5.03,13.82-20.94,25.13l5.86.84s-11.62,11.6-15.81,14.39c0,0-2.79,2.99-4.19,3.99,0,0-7.98,5.39-7.78,6.18h7.38s-5.98,7.26-31.71,12.5c0,0-6.18.06-6.58,3.05l3.79,1s-27.33,9.57-29.52,31.71c0,0,16.36,8.58,24.13,39.49,0,0,12.97,48.47,24.93,56.45,0,0,6.78,9.18,14.76,14.36,0,0,2.99,2.59,4.39,10.37,0,0,11.97,35.3,23.34,35.11,0,0,14.76-2.39,22.14-10.37,0,0,11.77-8.38,15.16-14.76,0,0,2.79-2.39,1.2,2.39v4.79s2.99.4,8.58-8.78c0,0,9.57-9.97,13.36-13.76s11.17-14.96,11.17-14.96c0,0,1.4,4.99-2.39,10.77,0,0,.6,1.99,2.99-1,0,0,9.77-10.17,11.77-15.56,0,0,3.19-14.16,5.78-15.36,0,0,1.6,6.38,1.2,7.78,0,0,4.39,1.4,9.37-15.36,0,0,4.99-11.97,5.19-13.36,0,0,2.59-10.37,3.79-9.57,0,0,1.6,4.19,1,5.98,0,0,1,1.2,2.39-2.79,0,0,4.19-17.35,2.79-30.12,0,0,6.58,2.59,8.38,1.99,0,0,1.8,0-2.59-9.18,0,0-9.77-15.16,3.59-23.14,0,0,3.39-2.59,9.77-3.79,0,0,5.58-1.4,6.58-1.99,0,0,7.58-1.8,11.57-4.79,0,0,14.36-7.38,28.12-5.39,0,0,12.96,4.39,17.75,3.79,0,0,13.16.4,14.36-3.59,0,0,5.39-4.19,5.78-6.78l1.86-4.87s5.86,2.09,10.47-6.7c0,0,10.47-12.98,0-25.13ZM384.17,259.34c-5.48,2.32-20.24,12.65-20.24,12.65-4.43,3.16-5.27,1.48-5.27,1.48-3.58,0-11.39-8.86-11.39-8.86-5.06-2.74-1.48-11.81-1.48-11.81l2.74-9.28c1.9-1.48,4.01-21.72,4.01-21.72.42-11.81,6.75-10.96,6.75-10.96,10.12,0,17.5,6.11,17.5,6.11,10.75,10.96,13.49,32.68,13.49,32.68,1.48,5.06-6.11,9.7-6.11,9.7Z"/>
</svg>