<?xml version="1.0" encoding="UTF-8"?>
<svg id="Turkey" xmlns="http://www.w3.org/2000/svg" viewBox="0 0 600 600">
  <defs>
    <style>
      .cls-1 {
        fill: #010101;
      }
    </style>
  </defs>
  <path class="cls-1" d="M240.53,143.81s87.03-22.38,153.55,33.88c0,0,20.2,13.68,27.04-11.5,0,0,10.57-20.83-13.37-64.96-23.93-44.14-.93-97.29,46.93-86.41,0,0,22.38,4.66,34.5,26.73,0,0,29.84,4.97,27.97,40.72,0,0-16.78-10.57-29.53-10.57,0,0-6.53-1.55-2.49,34.81,0,0,.93,20.51-12.43,15.54,0,0-5.59,1.86-10.88-27.97,0,0-2.18,29.22,14.3,51.91,0,0,29.84,56.88,18.96,72.42,0,0,.62,12.12-3.42,16.16,0,0,16.16,27.35,10.88,78.64,0,0-10.62,123.83-161.36,130.69,0,0-6.36,15.17-14.68,23.49,0,0,10.77,43.56,22.51,59.71,0,0,6.36,12.73,6.36,16.15,0,0,9.39,5.24,29.53,4.64,0,0,19.55-3.99,26.73,14.16,0,0-12.57-3.79-19.75-4.39,0,0-9.77.2-18.15-.8,0,0,29.12,3.79,31.32,23.14,0,0-6.38-4.59-17.55-6.58,0,0-20.35-4.79-23.14-5.98,0,0-19.75.6-28.92-11.97,0,0-7.78,1.99-16.95,6.98,0,0-6.18-12.17,11.57-19.55,0,0-2.19-13.76-8.98-28.72,0,0-14.56-33.51-16.95-40.89,0,0-14.76-9.97-13.96-32.91,0,0-5.39,2.19-7.98,2.19,0,0-9.37,17.15-24.53,24.53,0,0-5.98,46.87-1,66.22,0,0,1,15.36,4.39,16.16,0,0,10.77,6.98,30.32,5.58,0,0,17.15,4.99,18.15,16.56,0,0-17.95-3.99-23.14-4.39,0,0-15.76-1.6-16.56-2.99,0,0,28.62,12.97,30.16,20.74,0,0,3.54,1.99,2.35,10.57,0,0-9.77-7.18-15.16-8.18,0,0-27.53-13.56-32.11-19.55,0,0-2.39-.6,2.79,5.39,0,0,6.78,8.78,2.59,24.93,0,0-5.58-9.18-9.77-12.77,0,0-12.97-11.37-14.96-30.12,0,0-11.37,1-21.94,5.58,0,0-2.54-19.02,20.54-19.95,0,0,1-42.88-.6-72.01,0,0-4.39-11.97-4.39-17.95,0,0-25.33,25.13-35.7,22.34,0,0,1.99-17.95,3.79-18.35,0,0-31.91,29.92-44.48,22.54,0,0-1-9.57,5.19-14.36,0,0,11.97-17.75,12.57-18.15,0,0-27.92,24.33-47.07,23.54,0,0-10.77,1-4.79-10.97,0,0,8.78-14.96,18.75-20.54,0,0-12.97,8.58-26.33,5.19,0,0-10.17-1.6,6.98-27.33,0,0,7.78-11.37,10.17-12.17,0,0-12.17,5.78-16.56-3.39,0,0,3.79-27.53,20.15-49.67,0,0-32.11,36.5-42.49,26.93,0,0-14.56-7.38-14.36-18.95,0,0,1.99-5.19,5.39-5.98l5.58-4.79s-1.6-.6-9.97,3.79c0,0-7.78,2.39-12.77-3.79,0,0-21.74-34.51-13.76-50.26l10.57-6.38-8.58-.4s-9.97-.8-12.77-14.76c0,0-9.57-46.08,0-54.85,0,0,1.8-3.79,11.77-3.19,0,0-3.19-2.39-7.78-4.19,0,0-11.17,1.4-6.18-36.7,0,0,4.99-30.12,13.76-27.13l8.38,1.6s-.2-1.4-4.19-4.79c0,0-8.78-4.59-5.78-17.35,0,0,11.77-37.5,20.94-37.5,0,0,5.98-.2,10.57,3.79,0,0,1.8,1.99-2.99-5.78,0,0-6.98-9.77,2.39-21.54,0,0,11.97-17.55,24.93-18.75,0,0,6.78,0,9.37,5.39,0,0,1-.4,0-5.98,0,0,1.8-15.76,30.52-11.77,0,0,3.39-.2,6.58,7.98,0,0,3.79,6.98,3.19,2.39,0,0-.6-9.37,6.18-7.98,0,0,13.56.6,28.32,17.95,0,0,2.79,0,1.99,7.78,0,0,1.8,10.77,2.59,3.39,0,0,3.59-6.38,7.58-1.2,0,0,12.97,11.37,22.54,39.09,0,0-1.8,9.37,1.2,3.59,0,0,4.39-1.8,7.78,11.17,0,0,8.61,19.01,8,23.37Z"/>
</svg>