<?xml version="1.0" encoding="UTF-8"?>
<svg id="Layer_1" data-name="Layer 1" xmlns="http://www.w3.org/2000/svg" viewBox="0 0 600 600">
  <defs>
    <style>
      .cls-1 {
        fill: #231f20;
      }

      .cls-2 {
        fill: #f26722;
      }
    </style>
  </defs>
  <g>
    <path class="cls-1" d="M267.04,168.77h-18.35l-17.89,79.92h13.94l3.95-17.66h17.42l4.18,17.66h13.24l-16.49-79.92ZM251.48,217.33l5.69-32.76,6.39,32.76h-12.08Z"/>
    <path class="cls-1" d="M326.52,215.7c8.83-3.02,11.62-14.75,11.62-14.75v-16.38c-1.63-14.87-20.91-15.8-20.91-15.8h-24.63v79.92h13.24v-31.36h7.2l11.38,31.36h15.57l-13.47-32.99ZM323.96,200.95c-1.16,4.53-7.67,4.76-7.67,4.76h-10.45v-25.09h9.06c6.97.23,9.06,5.81,9.06,5.81v14.52Z"/>
    <path class="cls-1" d="M385.06,215.7c8.83-3.02,11.62-14.75,11.62-14.75v-16.38c-1.63-14.87-20.91-15.8-20.91-15.8h-24.63v79.92h13.24v-31.36h7.2l11.38,31.36h15.57l-13.47-32.99ZM382.51,200.95c-1.16,4.53-7.67,4.76-7.67,4.76h-10.45v-25.09h9.06c6.97.23,9.06,5.81,9.06,5.81v14.52Z"/>
    <path class="cls-1" d="M430.25,167.38s-21.49-2.32-23.35,17.19v48.55s2.32,16.26,22.3,16.49c0,0,19.75,2.32,24.39-16.49v-48.55s.93-17.66-23.35-17.19ZM441.05,192.6v33.67c-2.08,13.05-10.92,11.44-10.92,11.44-8.95-.16-9.99-11.44-9.99-11.44v-33.67c.83-13.53,10.45-11.92,10.45-11.92,10.87-.32,10.45,11.92,10.45,11.92Z"/>
    <path class="cls-1" d="M293.55,371s-13.82-1.04-15.02,7.73v21.83s1.49,7.31,14.35,7.42c0,0,12.7,1.04,15.69-7.42v-21.83s.6-7.94-15.02-7.73ZM300.5,382.34v15.14c-1.34,5.87-7.03,5.14-7.03,5.14-5.75-.07-6.42-5.14-6.42-5.14v-15.14c.54-6.08,6.72-5.36,6.72-5.36,6.99-.14,6.72,5.36,6.72,5.36Z"/>
    <polygon class="cls-1" points="476.13 168.77 461.73 168.77 477.99 248.69 492.39 248.69 501.92 194.56 512.37 248.69 526.77 248.69 542.57 168.77 528.63 168.77 519.11 223.83 508.42 168.77 496.34 168.77 485.65 224.76 476.13 168.77"/>
    <polygon class="cls-1" points="245.21 269.63 230.81 269.63 247.07 349.55 261.48 349.55 271 295.42 281.45 349.55 295.86 349.55 311.66 269.63 297.72 269.63 288.19 324.69 277.51 269.63 265.42 269.63 254.74 325.62 245.21 269.63"/>
    <polygon class="cls-1" points="357.88 269.63 320.48 269.63 320.48 347.66 357.88 347.66 357.88 335.11 334.42 335.11 334.42 314.9 355.32 314.9 355.32 302.59 334.42 302.59 334.42 281.91 357.88 281.91 357.88 269.63"/>
    <rect class="cls-1" x="369.96" y="269.63" width="13.47" height="78.95"/>
    <path class="cls-1" d="M442.68,295.85v-10.69s-.46-17.89-22.53-16.73c0,0-18.82-3.02-23.46,15.57v45.53s-.23,19.75,21.61,19.05c0,0,21.84,3.25,24.39-16.96v-25.09h-24.63v12.78h12.2v10.69s-.82,6.97-8.02,7.67c0,0-10.45.23-11.62-9.29v-40.19s.93-8.36,9.06-8.13c0,0,8.36-.7,9.29,7.9v7.67l13.71.23Z"/>
    <polygon class="cls-1" points="456.38 269.63 469.62 269.63 469.62 301.43 490.07 301.43 490.07 269.63 504.47 269.63 504.47 347.66 490.53 347.66 490.53 314.2 469.62 314.2 469.62 347.66 456.38 347.66 456.38 269.63"/>
    <polygon class="cls-1" points="558.37 269.63 514.69 269.63 514.69 282.14 530.03 282.14 530.03 348.59 543.73 348.59 543.73 282.38 558.37 282.38 558.37 269.63"/>
    <path class="cls-1" d="M266.96,383.3s.57-12.79-13.59-12.34c0,0-11.32-2.38-13.78,12.34v11.51s1.14,14.53,13.68,14.15c0,0,11.99.38,13.68-11.89h-7.36s-.56,4.53-6.32,4.72c0,0-5.38-.19-5.95-5.66v-13.59s1.14-5.52,5.95-5.59c0,0,5.57.31,5.57,6.16l8.11.19Z"/>
    <polygon class="cls-1" points="320.48 371.79 327.91 371.79 337.72 389.49 348.85 371.79 355.46 371.79 355.46 408.01 348.48 408.01 348.48 383.49 339.18 400.28 336.02 400.28 327.34 383.49 327.34 408.01 320.48 408.01 320.48 371.79"/>
  </g>
  <path class="cls-2" d="M127.57,167.29l-78.3,138.32,54.15,39.71v15.81s2.27,2.36,6.8,4.32v37.87s.26,5.68,17.36,5.65c17.09.03,17.36-5.65,17.36-5.65v-37.87c4.53-1.96,6.8-4.32,6.8-4.32v-15.81l54.15-39.71-78.3-138.32ZM106.4,312.24l-20.45-14.27c12.13-19.7,25.42-34.2,25.42-34.2-.52,3.7-4.97,48.48-4.97,48.48ZM126.64,362.75v35.91c-1.82.02-5.9.14-8.58.85v-37.77s4.9-1.36,8.58-1.24v2.25ZM144.47,354.19c-10.5-2.19-17.83-1.55-17.83-1.55,0,0-9.94.33-15.96,2.87v-6.16s8.64-1.81,16.35-1.84c9.98-.16,17.43,2.35,17.43,2.35v4.34ZM136.08,235.72s7.75,44.84,5.92,91.19c0,0-7.1-60.57-5.92-91.19ZM145.41,262.91s16.58,22.18,24.38,35.66l-20.08,14.09s-3.78-46.05-4.3-49.75ZM150.36,335.86l-.45-13.63,31.38-22.26-.95-1.82c-2.11-3.93-36.87-67.21-48.6-87.73-.43-.76-2.66-6.84-3.47-11.36l-.37-.71c-1.93,11.98-.93,138.11-.9,141.31-.74.03-9.77.47-14.63,2.38h-1.72s10.13-89.47,7.47-120.4l-43.74,77.44,31.15,22.09-1.66,13.48-43.19-31.48,66.92-118.2,66.39,117.91-43.61,32.98Z"/>
</svg>