<?xml version="1.0" encoding="UTF-8"?>
<svg id="Layer_1" data-name="Layer 1" xmlns="http://www.w3.org/2000/svg" viewBox="0 0 600 600">
  <defs>
    <style>
      .cls-1 {
        fill: #fff;
      }

      .cls-2 {
        fill: #f26722;
      }
    </style>
  </defs>
  <g>
    <path class="cls-1" d="M257.15,175.55h-20.42l-19.9,88.91h15.51l4.39-19.64h19.38l4.65,19.64h14.73l-18.35-88.91ZM239.83,229.57l6.33-36.44,7.11,36.44h-13.44Z"/>
    <path class="cls-1" d="M323.31,227.76c9.82-3.36,12.92-16.41,12.92-16.41v-18.22c-1.81-16.54-23.26-17.58-23.26-17.58h-27.4v88.91h14.73v-34.89h8.01l12.66,34.89h17.32l-14.99-36.7ZM320.47,211.35c-1.29,5.04-8.53,5.3-8.53,5.3h-11.63v-27.91h10.08c7.75.26,10.08,6.46,10.08,6.46v16.15Z"/>
    <path class="cls-1" d="M388.45,227.76c9.82-3.36,12.92-16.41,12.92-16.41v-18.22c-1.81-16.54-23.26-17.58-23.26-17.58h-27.4v88.91h14.73v-34.89h8.01l12.66,34.89h17.32l-14.99-36.7ZM385.6,211.35c-1.29,5.04-8.53,5.3-8.53,5.3h-11.63v-27.91h10.08c7.75.26,10.08,6.46,10.08,6.46v16.15Z"/>
    <path class="cls-1" d="M438.72,174s-23.91-2.58-25.98,19.13v54.02s2.58,18.09,24.81,18.35c0,0,21.97,2.58,27.14-18.35v-54.02s1.03-19.64-25.98-19.13ZM450.73,202.07v37.46c-2.31,14.52-12.15,12.72-12.15,12.72-9.95-.18-11.11-12.72-11.11-12.72v-37.46c.93-15.05,11.63-13.26,11.63-13.26,12.09-.36,11.63,13.26,11.63,13.26Z"/>
    <path class="cls-1" d="M286.64,400.54s-15.38-1.16-16.71,8.6v24.29s1.66,8.13,15.96,8.25c0,0,14.13,1.16,17.46-8.25v-24.29s.66-8.83-16.71-8.6ZM294.37,413.16v16.84c-1.49,6.53-7.82,5.72-7.82,5.72-6.4-.08-7.15-5.72-7.15-5.72v-16.84c.6-6.77,7.48-5.96,7.48-5.96,7.78-.16,7.48,5.96,7.48,5.96Z"/>
    <polygon class="cls-1" points="489.76 175.55 473.74 175.55 491.83 264.47 507.86 264.47 518.45 204.24 530.08 264.47 546.11 264.47 563.68 175.55 548.18 175.55 537.58 236.81 525.69 175.55 512.25 175.55 500.36 237.84 489.76 175.55"/>
    <polygon class="cls-1" points="232.86 287.77 216.83 287.77 234.93 376.68 250.95 376.68 261.55 316.45 273.18 376.68 289.2 376.68 306.78 287.77 291.27 287.77 280.67 349.02 268.79 287.77 255.35 287.77 243.46 350.05 232.86 287.77"/>
    <polygon class="cls-1" points="358.21 287.77 316.59 287.77 316.59 374.57 358.21 374.57 358.21 360.61 332.1 360.61 332.1 338.13 355.36 338.13 355.36 324.43 332.1 324.43 332.1 301.43 358.21 301.43 358.21 287.77"/>
    <rect class="cls-1" x="371.65" y="287.77" width="14.99" height="87.84"/>
    <path class="cls-1" d="M452.54,316.93v-11.89s-.52-19.9-25.07-18.61c0,0-20.94-3.36-26.1,17.32v50.66s-.26,21.97,24.04,21.19c0,0,24.3,3.62,27.14-18.87v-27.91h-27.4v14.22h13.57v11.89s-.91,7.75-8.92,8.53c0,0-11.63.26-12.92-10.34v-44.71s1.03-9.3,10.08-9.05c0,0,9.3-.78,10.34,8.79v8.53l15.25.26Z"/>
    <polygon class="cls-1" points="467.79 287.77 482.53 287.77 482.53 323.14 505.27 323.14 505.27 287.77 521.3 287.77 521.3 374.57 505.79 374.57 505.79 337.35 482.53 337.35 482.53 374.57 467.79 374.57 467.79 287.77"/>
    <polygon class="cls-1" points="581.26 287.77 532.67 287.77 532.67 301.68 549.73 301.68 549.73 375.6 564.98 375.6 564.98 301.94 581.26 301.94 581.26 287.77"/>
    <path class="cls-1" d="M257.05,414.22s.63-14.23-15.12-13.73c0,0-12.6-2.65-15.33,13.73v12.81s1.26,16.17,15.22,15.75c0,0,13.34.42,15.22-13.23h-8.19s-.63,5.04-7.03,5.25c0,0-5.98-.21-6.61-6.3v-15.12s1.26-6.14,6.61-6.22c0,0,6.19.34,6.19,6.85l9.03.21Z"/>
    <polygon class="cls-1" points="316.59 401.42 324.86 401.42 335.78 421.11 348.16 401.42 355.51 401.42 355.51 441.72 347.74 441.72 347.74 414.43 337.4 433.12 333.89 433.12 324.23 414.43 324.23 441.72 316.59 441.72 316.59 401.42"/>
  </g>
  <g>
    <path class="cls-2" d="M190.43,326.61l-80.2-164.39c-.04-.09-.09-.18-.14-.26-5.17-7.98-9.99-1.02-10.64,0-.05.08-.09.15-.13.23L20.19,326.84c-2.3,4.79-.48,10.95-.07,12.17.05.14.1.27.18.4l15.25,27.03c.56.99,1.78,1.4,2.82.94,50.15-21.96,52.53,15.98,52.63,18.39,0,.08,0,.15,0,.23l-2.49,39.31c-.06.52-.1,1.04-.1,1.57v.11s0,0,0,0c0,8.52,7.57,20.88,16.91,20.88s16.91-12.36,16.91-20.88c0-.65-.05-1.28-.13-1.9l-2.71-38.91c0-.11,0-.23,0-.34,2.93-39.03,43.18-22.66,52.47-18.35,1.08.5,2.35.06,2.9-.99l13.35-25.58c.03-.06.07-.13.11-.19,3.83-5.66,2.7-12.23,2.4-13.63-.04-.17-.1-.34-.17-.5ZM103.59,345.47c-13.34-12-40.53-11.74-50.47-11.2-1.68.09-2.85-1.64-2.14-3.16l52.01-110.71c.8-1.71,3.24-1.7,4.03.01l51.34,111.05c.72,1.56-.53,3.31-2.23,3.14-29.31-2.96-45.03,7.29-49.65,10.98-.86.69-2.07.63-2.89-.11Z"/>
    <path class="cls-2" d="M99.36,262.05l-24.4,56.48c-.14.32.11.67.46.63,3.14-.33,15.08-1.03,21.28,6.27.27.32.78.15.8-.27l2.73-62.91c.02-.5-.67-.66-.87-.2Z"/>
    <path class="cls-2" d="M110.6,262.02l24.53,56.77c.12.29-.11.6-.42.57-3.04-.33-15.2-1.1-21.43,6.35-.24.29-.71.13-.72-.24l-2.74-63.27c-.02-.46.61-.6.79-.18Z"/>
  </g>
</svg>