<?xml version="1.0" encoding="UTF-8"?>
<svg id="Layer_1" data-name="Layer 1" xmlns="http://www.w3.org/2000/svg" viewBox="0 0 600 600">
  <defs>
    <style>
      .cls-1 {
        fill: #f26722;
      }
    </style>
  </defs>
  <path class="cls-1" d="M300,12.56L115.51,338.46l127.57,93.55v37.24s5.34,5.55,16.02,10.18v89.21s.62,13.39,40.89,13.31c40.27.07,40.89-13.31,40.89-13.31v-89.21c10.68-4.63,16.02-10.18,16.02-10.18v-37.24l127.57-93.55L300,12.56ZM250.11,354.06l-48.19-33.62c28.59-46.42,59.9-80.59,59.9-80.59-1.23,8.71-11.71,114.21-11.71,114.21ZM297.8,473.08v84.61c-4.29.04-13.91.32-20.22,1.99v-89s11.53-3.2,20.22-2.92v5.31ZM339.8,452.9c-24.74-5.17-42-3.64-42-3.64,0,0-23.42.78-37.59,6.76v-14.52s20.36-4.27,38.52-4.34c23.51-.38,41.08,5.53,41.08,5.53v10.22ZM320.03,173.79s18.27,105.65,13.95,214.86c0,0-16.73-142.7-13.95-214.86ZM342.01,237.84s39.07,52.25,57.43,84.03l-47.31,33.19s-8.9-108.5-10.12-117.22ZM353.68,409.71l-1.06-32.12,73.93-52.43-2.25-4.28c-4.97-9.25-86.86-158.34-114.51-206.7-1.02-1.78-6.27-16.11-8.18-26.78l-.88-1.68c-4.54,28.22-2.19,325.39-2.13,332.92-1.75.08-23.01,1.12-34.47,5.62h-4.06s23.86-210.79,17.61-283.66l-103.06,182.44,73.39,52.05-3.9,31.75-101.76-74.17L300,54.2l156.42,277.81-102.74,77.71Z"/>
</svg>