<?xml version="1.0" encoding="UTF-8"?>
<svg id="Layer_1" data-name="Layer 1" xmlns="http://www.w3.org/2000/svg" viewBox="0 0 1062.1 600">
  <defs>
    <style>
      .cls-1 {
        fill: #231f20;
      }

      .cls-2 {
        fill: #f26722;
      }
    </style>
  </defs>
  <g>
    <path class="cls-1" d="M342.41,214.15h-18.35l-17.89,79.92h13.94l3.95-17.66h17.42l4.18,17.66h13.24l-16.49-79.92ZM326.85,262.71l5.69-32.76,6.39,32.76h-12.08Z"/>
    <path class="cls-1" d="M401.89,261.08c8.83-3.02,11.62-14.75,11.62-14.75v-16.38c-1.63-14.87-20.91-15.8-20.91-15.8h-24.63v79.92h13.24v-31.36h7.2l11.38,31.36h15.57l-13.47-32.99ZM399.33,246.33c-1.16,4.53-7.67,4.76-7.67,4.76h-10.45v-25.09h9.06c6.97.23,9.06,5.81,9.06,5.81v14.52Z"/>
    <path class="cls-1" d="M460.43,261.08c8.83-3.02,11.62-14.75,11.62-14.75v-16.38c-1.63-14.87-20.91-15.8-20.91-15.8h-24.63v79.92h13.24v-31.36h7.2l11.38,31.36h15.57l-13.47-32.99ZM457.87,246.33c-1.16,4.53-7.67,4.76-7.67,4.76h-10.45v-25.09h9.06c6.97.23,9.06,5.81,9.06,5.81v14.52Z"/>
    <path class="cls-1" d="M505.62,212.76s-21.49-2.32-23.35,17.19v48.55s2.32,16.26,22.3,16.49c0,0,19.75,2.32,24.39-16.49v-48.55s.93-17.66-23.35-17.19ZM516.42,237.98v33.67c-2.08,13.05-10.92,11.44-10.92,11.44-8.95-.16-9.99-11.44-9.99-11.44v-33.67c.83-13.53,10.45-11.92,10.45-11.92,10.87-.32,10.45,11.92,10.45,11.92Z"/>
    <polygon class="cls-1" points="551.5 214.15 537.09 214.15 553.36 294.07 567.76 294.07 577.28 239.94 587.74 294.07 602.14 294.07 617.94 214.15 604 214.15 594.48 269.21 583.79 214.15 571.71 214.15 561.02 270.14 551.5 214.15"/>
  </g>
  <g>
    <polygon class="cls-1" points="551.5 318.62 537.09 318.62 553.36 398.54 567.76 398.54 577.28 344.41 587.74 398.54 602.14 398.54 617.94 318.62 604 318.62 594.48 373.68 583.79 318.62 571.71 318.62 561.02 374.61 551.5 318.62"/>
    <polygon class="cls-1" points="664.16 318.62 626.76 318.62 626.76 396.65 664.16 396.65 664.16 384.1 640.7 384.1 640.7 363.89 661.61 363.89 661.61 351.58 640.7 351.58 640.7 330.9 664.16 330.9 664.16 318.62"/>
    <rect class="cls-1" x="676.24" y="318.62" width="13.47" height="78.95"/>
    <path class="cls-1" d="M748.96,344.84v-10.69s-.46-17.89-22.53-16.73c0,0-18.82-3.02-23.46,15.57v45.53s-.23,19.75,21.61,19.05c0,0,21.84,3.25,24.39-16.96v-25.09h-24.63v12.78h12.2v10.69s-.82,6.97-8.02,7.67c0,0-10.45.23-11.62-9.29v-40.19s.93-8.36,9.06-8.13c0,0,8.36-.7,9.29,7.9v7.67l13.71.23Z"/>
    <polygon class="cls-1" points="762.67 318.62 775.91 318.62 775.91 350.42 796.35 350.42 796.35 318.62 810.76 318.62 810.76 396.65 796.82 396.65 796.82 363.19 775.91 363.19 775.91 396.65 762.67 396.65 762.67 318.62"/>
    <polygon class="cls-1" points="864.65 318.62 820.98 318.62 820.98 331.13 836.31 331.13 836.31 397.58 850.02 397.58 850.02 331.37 864.65 331.37 864.65 318.62"/>
  </g>
  <g>
    <path class="cls-1" d="M928.15,359.8s-13.82-1.04-15.02,7.73v21.83s1.49,7.31,14.35,7.42c0,0,12.7,1.04,15.69-7.42v-21.83s.6-7.94-15.02-7.73ZM935.09,371.14v15.14c-1.34,5.87-7.03,5.14-7.03,5.14-5.75-.07-6.42-5.14-6.42-5.14v-15.14c.54-6.08,6.72-5.36,6.72-5.36,6.99-.14,6.72,5.36,6.72,5.36Z"/>
    <path class="cls-1" d="M901.55,372.1s.57-12.79-13.59-12.34c0,0-11.32-2.38-13.78,12.34v11.51s1.14,14.53,13.68,14.15c0,0,11.99.38,13.68-11.89h-7.36s-.56,4.53-6.32,4.72c0,0-5.38-.19-5.95-5.66v-13.59s1.14-5.52,5.95-5.59c0,0,5.57.31,5.57,6.16l8.11.19Z"/>
    <polygon class="cls-1" points="955.07 360.59 962.5 360.59 972.32 378.29 983.45 360.59 990.05 360.59 990.05 396.81 983.07 396.81 983.07 372.29 973.77 389.08 970.62 389.08 961.94 372.29 961.94 396.81 955.07 396.81 955.07 360.59"/>
    <circle class="cls-1" cx="864.65" cy="393.63" r="4.14"/>
  </g>
  <path class="cls-2" d="M74.01,294.07v24.84h829.41v-24.84H74.01ZM899.5,306.03s0,0-.01,0h0s-820.44,0-820.44,0v-7.49h820.44s0,0,.01,0c.88,0,1.59,1.68,1.59,3.74s-.71,3.74-1.59,3.74Z"/>
  <path class="cls-2" d="M936.64,257.08l-25.12,34.26h-10s-1.22,1.19-2.38,3.55l.72,2.14,1.27,3.57s.86,3.1.78,5.43h-2.78v12.33c1.16,2.36,2.38,3.55,2.38,3.55h10l25.12,34.26,87.52-49.54-87.52-49.54ZM908.65,317.31h-2.74c1.39-6.64.98-11.28.98-11.28,0,0-.21-6.29-1.82-10.1h3.9s1.15,5.47,1.17,10.34c.1,6.31-1.48,11.03-1.48,11.03ZM917.5,321.04l8.63-.29,14.08,19.85,1.15-.6c2.48-1.34,42.52-23.33,55.51-30.75.48-.27,4.33-1.68,7.19-2.2l.45-.24c-7.58-1.22-87.38-.59-89.4-.57-.02-.47-.3-6.18-1.51-9.26v-1.09s56.6,6.41,76.17,4.73l-48.99-27.68-13.98,19.71-8.53-1.05,19.92-27.33,74.78,42.34-74.6,42.01-20.87-27.59ZM923.16,315.75s38.32-4.49,57.7-3.75c0,0-28.37,4.91-57.7,3.75ZM963.66,317.9s-14.03,10.49-22.56,15.42l-8.91-12.7s29.14-2.39,31.48-2.72ZM932.45,293.22l9.03-12.94c12.47,7.68,21.64,16.08,21.64,16.08-2.34-.33-30.67-3.14-30.67-3.14Z"/>
  <path class="cls-2" d="M144.33,275.96s120.12,5.87,145.93,19.32h14.66c-27.1-19.13-166.1-27.47-166.1-27.47-24.77-1.8-40.53,27.47-40.53,27.47h10.54c2.16-3.03,15.5-20.5,35.5-19.32Z"/>
  <path class="cls-2" d="M100.53,322.27c5.1,7.94,18.97,26.1,38.37,24.65,0,0,121.93-7.52,159.66-24.65H100.53ZM111.42,325.87c6.86,14.83,30.91,11.51,30.91,11.51l90.5-4.67-81.55,7.85c-33.66,6.4-39.86-14.68-39.86-14.68Z"/>
  <path class="cls-2" d="M28.52,298.06c.68,3.48,8.14,3.81,8.14,3.81,11.06-1.94,11.52,1.6,11.52,1.6,3.95,9.56-15.27,5.41-15.27,5.41-5.46,1.47-4.28,4.55-4.28,4.55,24.94,9.89,46.27,5.55,46.27,5.55v-24.87c-27.51-4.95-46.38,3.94-46.38,3.94ZM72.43,316.26s-12.59,4.13-39.66-3.54c0,0,29.15,4.79,39.66,0v3.54ZM72.43,306.03h-21.12c0-.47-.14-4.75-.48-5.38,0,0-.41-2.45-10.36-1.11,0,0-7.08,1.4-7.69-1,0,0,14.91-5.81,39.66-2.39v9.88Z"/>
</svg>