<?xml version="1.0" encoding="UTF-8"?>
<svg id="Layer_1" data-name="Layer 1" xmlns="http://www.w3.org/2000/svg" viewBox="0 0 1062.1 600">
  <defs>
    <style>
      .cls-1 {
        fill: #fff;
      }

      .cls-2 {
        fill: #f26722;
      }
    </style>
  </defs>
  <g>
    <rect class="cls-2" x="47.41" y="304.48" width="903.86" height="19.46"/>
    <g>
      <path class="cls-2" d="M966.76,356.89l82.13-40.07s.09-.05.13-.07c3.99-2.59.51-4.99,0-5.32-.04-.02-.07-.04-.12-.06l-82.26-39.53c-2.39-1.15-5.47-.24-6.08-.04-.07.02-.14.05-.2.09l-13.5,7.62c-.5.28-.7.89-.47,1.41,10.97,25.06-7.98,26.24-9.19,26.29-.04,0-.08,0-.11,0l-19.64-1.24c-.26-.03-.52-.05-.79-.05h-.06s0,0,0,0c-4.26,0-10.43,3.78-10.43,8.45s6.17,8.45,10.43,8.45c.32,0,.64-.02.95-.07l19.44-1.36c.06,0,.11,0,.17,0,19.5,1.47,11.32,21.57,9.17,26.21-.25.54-.03,1.18.49,1.45l12.78,6.67s.06.04.09.06c2.83,1.91,6.11,1.35,6.81,1.2.09-.02.17-.05.25-.09ZM957.33,313.5c6-6.66,5.87-20.25,5.6-25.22-.05-.84.82-1.42,1.58-1.07l55.32,25.99c.85.4.85,1.62,0,2.01l-55.49,25.65c-.78.36-1.66-.26-1.57-1.12,1.48-14.65-3.64-22.5-5.49-24.8-.34-.43-.31-1.04.06-1.45Z"/>
      <path class="cls-2" d="M999.01,311.39l-28.22-12.19c-.16-.07-.33.06-.32.23.16,1.57.51,7.54-3.13,10.63-.16.13-.07.39.13.4l31.43,1.36c.25.01.33-.34.1-.44Z"/>
      <path class="cls-2" d="M999.03,317l-28.36,12.25c-.14.06-.3-.05-.29-.21.16-1.52.55-7.6-3.17-10.71-.14-.12-.07-.35.12-.36l31.61-1.37c.23,0,.3.3.09.39Z"/>
    </g>
    <path class="cls-2" d="M79.32,305.01s13.89-25.8,35.72-24.21c0,0,122.53,7.35,146.42,24.21H79.32Z"/>
    <path class="cls-2" d="M79.32,323.39s13.89,26.55,35.72,24.91c0,0,122.53-7.56,146.42-24.91H79.32Z"/>
    <path class="cls-2" d="M47.41,304.5v19.42s-16.65,3.39-36.14-4.33c0,0-.93-2.4,3.34-3.55,0,0,15.01,3.24,11.93-4.23,0,0-.36-2.77-9-1.25,0,0-5.82-.26-6.36-2.98,0,0,14.73-6.94,36.22-3.08Z"/>
  </g>
  <g>
    <path class="cls-1" d="M293.95,221.32h-19.23l-18.74,83.72h14.6l4.14-18.5h18.25l4.38,18.5h13.87l-17.28-83.72ZM277.65,272.18l5.96-34.31,6.69,34.31h-12.66Z"/>
    <path class="cls-1" d="M356.25,270.48c9.25-3.16,12.17-15.45,12.17-15.45v-17.16c-1.7-15.58-21.9-16.55-21.9-16.55h-25.8v83.72h13.87v-32.85h7.54l11.92,32.85h16.31l-14.12-34.56ZM353.58,255.02c-1.22,4.75-8.03,4.99-8.03,4.99h-10.95v-26.28h9.49c7.3.24,9.49,6.08,9.49,6.08v15.21Z"/>
    <path class="cls-1" d="M417.58,270.48c9.25-3.16,12.17-15.45,12.17-15.45v-17.16c-1.7-15.58-21.9-16.55-21.9-16.55h-25.8v83.72h13.87v-32.85h7.54l11.92,32.85h16.31l-14.12-34.56ZM414.9,255.02c-1.22,4.75-8.03,4.99-8.03,4.99h-10.95v-26.28h9.49c7.3.24,9.49,6.08,9.49,6.08v15.21Z"/>
    <path class="cls-1" d="M464.92,219.86s-22.51-2.43-24.46,18.01v50.86s2.43,17.04,23.36,17.28c0,0,20.69,2.43,25.55-17.28v-50.86s.97-18.5-24.46-18.01ZM476.23,246.28v35.27c-2.18,13.67-11.44,11.98-11.44,11.98-9.37-.17-10.46-11.98-10.46-11.98v-35.27c.87-14.18,10.95-12.49,10.95-12.49,11.39-.34,10.95,12.49,10.95,12.49Z"/>
    <polygon class="cls-1" points="512.98 221.32 497.89 221.32 514.93 305.04 530.02 305.04 539.99 248.33 550.95 305.04 566.03 305.04 582.58 221.32 567.98 221.32 558 279 546.81 221.32 534.15 221.32 522.96 279.97 512.98 221.32"/>
  </g>
  <g>
    <polygon class="cls-1" points="512.98 323.64 497.89 323.64 514.93 407.36 530.02 407.36 539.99 350.66 550.95 407.36 566.03 407.36 582.58 323.64 567.98 323.64 558 381.32 546.81 323.64 534.15 323.64 522.96 382.3 512.98 323.64"/>
    <polygon class="cls-1" points="631.01 323.64 591.82 323.64 591.82 405.38 631.01 405.38 631.01 392.24 606.43 392.24 606.43 371.07 628.33 371.07 628.33 358.17 606.43 358.17 606.43 336.51 631.01 336.51 631.01 323.64"/>
    <rect class="cls-1" x="643.66" y="323.64" width="14.12" height="82.71"/>
    <path class="cls-1" d="M719.83,351.11v-11.19s-.49-18.74-23.61-17.52c0,0-19.71-3.16-24.58,16.31v47.7s-.24,20.69,22.63,19.96c0,0,22.88,3.41,25.55-17.77v-26.28h-25.8v13.39h12.78v11.19s-.85,7.3-8.4,8.03c0,0-10.95.24-12.17-9.73v-42.1s.97-8.76,9.49-8.52c0,0,8.76-.73,9.73,8.27v8.03l14.36.24Z"/>
    <polygon class="cls-1" points="734.19 323.64 748.06 323.64 748.06 356.95 769.48 356.95 769.48 323.64 784.57 323.64 784.57 405.38 769.97 405.38 769.97 370.34 748.06 370.34 748.06 405.38 734.19 405.38 734.19 323.64"/>
    <polygon class="cls-1" points="841.03 323.64 795.28 323.64 795.28 336.75 811.34 336.75 811.34 406.35 825.7 406.35 825.7 336.99 841.03 336.99 841.03 323.64"/>
  </g>
  <g>
    <path class="cls-1" d="M907.54,366.78s-14.48-1.09-15.73,8.1v22.87s1.57,7.66,15.03,7.77c0,0,13.31,1.09,16.44-7.77v-22.87s.63-8.32-15.73-8.1ZM914.82,378.66v15.86c-1.4,6.15-7.36,5.39-7.36,5.39-6.03-.08-6.73-5.39-6.73-5.39v-15.86c.56-6.37,7.04-5.61,7.04-5.61,7.32-.15,7.04,5.61,7.04,5.61Z"/>
    <path class="cls-1" d="M879.68,379.66s.59-13.39-14.23-12.92c0,0-11.86-2.49-14.43,12.92v12.06s1.19,15.22,14.33,14.83c0,0,12.56.4,14.33-12.45h-7.71s-.59,4.74-6.62,4.94c0,0-5.64-.2-6.23-5.93v-14.23s1.19-5.78,6.23-5.86c0,0,5.83.32,5.83,6.45l8.5.2Z"/>
    <polygon class="cls-1" points="935.75 367.61 943.53 367.61 953.81 386.15 965.47 367.61 972.39 367.61 972.39 405.55 965.08 405.55 965.08 379.86 955.34 397.45 952.03 397.45 942.94 379.86 942.94 405.55 935.75 405.55 935.75 367.61"/>
    <circle class="cls-1" cx="841.03" cy="402.22" r="4.34"/>
  </g>
</svg>