<?xml version="1.0" encoding="UTF-8"?>
<svg id="Bolt" xmlns="http://www.w3.org/2000/svg" viewBox="0 0 1801.07 236.38">
  <defs>
    <style>
      .cls-1 {
        fill: #b5b5b5;
      }
    </style>
  </defs>
  <rect class="cls-1" x="361.39" y="102.88" width="703.22" height="37.38"/>
  <g>
    <path class="cls-1" d="M1313.81,64.52s-7.06,8.97-36.76,37.88c-.62-.43-1.37-.68-2.18-.68h-30.69c-2.13,0-3.85,1.72-3.85,3.85v30.69c0,2.13,1.72,3.85,3.85,3.85h30.69c1.2,0,2.26-.56,2.97-1.42,29.04,28.29,35.97,37.09,35.97,37.09l135.18-45.06h33.89v-21.11h-33.89l-135.18-45.09ZM1325.25,153.08l-13.24-18.77h77.08l-63.84,18.77ZM1312.01,106.03l13.24-18.78,63.84,18.78h-77.08Z"/>
    <polygon class="cls-1" points="1482.89 109.61 1482.89 130.72 1505.43 120.17 1482.89 109.61"/>
  </g>
  <rect class="cls-1" x="1090.28" y="102.88" width="121.06" height="37.38"/>
  <path class="cls-1" d="M778.41,85.09s-59-58.45-302.57-49.65c-1.48.05-2.85.77-3.73,1.96-4.57,6.2-19.74,25.74-30.35,26.91-1.48.16-2.81.97-3.75,2.13-2.11,2.6-4.63,8.05-3.06,18.65h343.46Z"/>
  <path class="cls-1" d="M778.41,158.04s-59,58.45-302.57,49.65c-1.48-.05-2.85-.77-3.73-1.96-4.57-6.2-19.74-25.74-30.35-26.91-1.48-.16-2.81-.97-3.75-2.13-2.11-2.6-4.63-8.05-3.06-18.65h343.46Z"/>
  <path class="cls-1" d="M343.46,102.88h-47.64c-1.46,0-2.47,1.46-1.95,2.83l4.74,12.45c.84,2.2.84,4.63,0,6.82l-4.67,12.27c-.55,1.45.52,3.01,2.07,3.01h47.44v-37.38Z"/>
</svg>