<?xml version="1.0" encoding="UTF-8"?>
<svg id="Layer_1" data-name="Layer 1" xmlns="http://www.w3.org/2000/svg" viewBox="0 0 600 600">
  <defs>
    <style>
      .cls-1 {
        fill: #fff;
      }
    </style>
  </defs>
  <path class="cls-1" d="M462.51,27.52H137.49c-23.53,0-42.61,19.08-42.61,42.61v459.73c0,23.53,19.08,42.61,42.61,42.61h325.02c23.53,0,42.61-19.08,42.61-42.61V70.13c0-23.53-19.08-42.61-42.61-42.61ZM140.26,154.58c0-5.71,4.63-10.33,10.33-10.33h297.77c5.71,0,10.33,4.63,10.33,10.33v67.29c0,5.71-4.63,10.33-10.33,10.33H150.59c-5.71,0-10.33-4.63-10.33-10.33v-67.29ZM211.32,354.02h-54.95c-8.11,0-14.68-6.57-14.68-14.68v-54.95c0-8.11,6.57-14.68,14.68-14.68h54.95c8.11,0,14.68,6.57,14.68,14.68v54.95c0,8.11-6.57,14.68-14.68,14.68ZM226.01,390.17v54.95c0,8.11-6.57,14.68-14.68,14.68h-54.95c-8.11,0-14.68-6.57-14.68-14.68v-54.95c0-8.11,6.57-14.68,14.68-14.68h54.95c8.11,0,14.68,6.57,14.68,14.68ZM342.15,519.47c0,4.78-3.87,8.65-8.65,8.65h-183.16c-4.78,0-8.65-3.87-8.65-8.65v-30.97c0-4.78,3.87-8.65,8.65-8.65h183.16c4.78,0,8.65,3.87,8.65,8.65v30.97ZM342.15,445.12c0,8.11-6.57,14.68-14.68,14.68h-54.95c-8.11,0-14.68-6.57-14.68-14.68v-54.95c0-8.11,6.57-14.68,14.68-14.68h54.95c8.11,0,14.68,6.57,14.68,14.68v54.95ZM342.67,339.34c0,8.11-6.57,14.68-14.68,14.68h-54.95c-8.11,0-14.68-6.57-14.68-14.68v-54.95c0-8.11,6.57-14.68,14.68-14.68h54.95c8.11,0,14.68,6.57,14.68,14.68v54.95ZM459.34,516.08c0,6.65-5.39,12.03-12.03,12.03h-60.24c-6.65,0-12.03-5.39-12.03-12.03v-128.56c0-6.65,5.39-12.03,12.03-12.03h60.24c6.65,0,12.03,5.39,12.03,12.03v128.56ZM459.34,339.34c0,8.11-6.57,14.68-14.68,14.68h-54.95c-8.11,0-14.68-6.57-14.68-14.68v-54.95c0-8.11,6.57-14.68,14.68-14.68h54.95c8.11,0,14.68,6.57,14.68,14.68v54.95Z"/>
</svg>