<?xml version="1.0" encoding="UTF-8"?>
<svg id="Layer_1" data-name="Layer 1" xmlns="http://www.w3.org/2000/svg" viewBox="0 0 600 600">
  <path d="M30.35,375.04c-5.34,0-9.3,5.05-7.93,10.21,7.73,29.27,45.19,51.47,90.25,51.47s82.52-22.2,90.25-51.47c1.36-5.16-2.59-10.21-7.93-10.21H30.35Z"/>
  <path d="M407.8,375.04c-5.34,0-9.3,5.05-7.93,10.21,7.73,29.27,45.19,51.47,90.25,51.47s82.52-22.2,90.25-51.47c1.36-5.16-2.59-10.21-7.93-10.21h-164.63Z"/>
  <rect x="59.5" y="274.64" width="42" height="84.52" rx="6.3" ry="6.3"/>
  <rect x="127.22" y="233.69" width="42" height="125.47" rx="6.3" ry="6.3"/>
  <rect x="442.73" y="274.64" width="42" height="84.52" rx="6.3" ry="6.3"/>
  <rect x="510.45" y="233.69" width="42" height="125.47" rx="6.3" ry="6.3"/>
  <path d="M513.6,181.2s-2.1-12.07-18.37-3.15l-99.74-28.35s-34.65-17.32-68.77-15.75c0,0-15.62-66.26-26.71-59.12,0,0-10.56-10.7-26.31,58.07,0,0-42.31,4.2-70.5,16.8l-90.52,25.2s-37.42-4.72-26.39,17.32c0,0,5.77,11.02,22.57,6.3,0,0,77.69-7.87,79.79-11.02l81.22-11.45c.03,8.81,4.59,16.64,11.64,21.61l-4.66,205.09-6.3,74.55s-12.39,24.67-67.35,33.6c0,0-38.69,13.12-37.64,33.6,0,0-1.05,7.35,16.8,6.3h242.53s16.8,2.62,6.82-14.17c0,0,2.1-18.37-77.69-38.85,0,0-24.15-9.45-26.77-26.77l-11.39-272.32c7.34-4.53,12.35-12.01,13.07-20.6,3.03.24,81.47,6.4,91.77,12.07l78.22,9.97s20.47,0,14.7-18.9Z"/>
</svg>