<?xml version="1.0" encoding="UTF-8"?>
<svg id="Layer_1" data-name="Layer 1" xmlns="http://www.w3.org/2000/svg" viewBox="0 0 600 600">
  <defs>
    <style>
      .cls-1 {
        fill: none;
        stroke: #000;
        stroke-miterlimit: 10;
        stroke-width: 28px;
      }
    </style>
  </defs>
  <path class="cls-1" d="M508.78,151.29l47.46,1.23c1.51,0,2.73,1.22,2.73,2.73v317.96c0,1.51-1.22,2.73-2.73,2.73H50.46c-1.51,0-2.73-1.22-2.73-2.73V155.24c0-1.51,1.22-2.73,2.73-2.73h41.64"/>
  <path class="cls-1" d="M300.62,477.66l-211-57.09c-1.51,0-2.73-1.22-2.73-2.73l-.91-317.58c0-1.51,1.22-2.73,2.73-2.73l211.73,49.88c1.51,0,2.73,1.22,2.73,2.73l.19,324.78c0,1.51-1.22,2.73-2.73,2.73Z"/>
  <path class="cls-1" d="M303.54,150.15l-.19,324.78c0,1.51,1.21,2.73,2.71,2.73l209.74-57.09c1.5,0,2.71-1.22,2.71-2.73l.91-317.58c0-1.51-1.21-2.73-2.71-2.73l-210.46,49.88c-1.5,0-2.71,1.22-2.71,2.73"/>
  <rect x="126.16" y="200.08" width="136.56" height="27.55" rx="13.77" ry="13.77" transform="translate(61.14 -42.61) rotate(14.81)"/>
  <rect x="126.38" y="269.91" width="136.56" height="27.55" rx="13.77" ry="13.77" transform="translate(79 -40.34) rotate(14.81)"/>
  <rect x="343.1" y="270.54" width="136.56" height="27.55" rx="13.77" ry="13.77" transform="translate(-61.03 120.3) rotate(-15.5)"/>
  <rect x="343.1" y="200.08" width="136.56" height="27.55" rx="13.77" ry="13.77" transform="translate(-42.19 117.74) rotate(-15.5)"/>
  <rect x="125.3" y="339.73" width="136.56" height="27.55" rx="13.77" ry="13.77" transform="translate(96.82 -37.74) rotate(14.81)"/>
  <ellipse cx="302.35" cy="484.67" rx="42.99" ry="14.38"/>
</svg>