<?xml version="1.0" encoding="UTF-8"?>
<svg id="Layer_1" data-name="Layer 1" xmlns="http://www.w3.org/2000/svg" viewBox="0 0 600 600">
  <path d="M275.95,550.31c-59.51,0-115.46-23.18-157.54-65.26-42.08-42.08-65.26-98.03-65.26-157.55s23.18-115.46,65.26-157.54c42.08-42.08,98.03-65.26,157.54-65.26,32.87,0,62.34,6.14,91.92,19.94l2.21,20.89-11.55,11.8c-25.04-11.69-54.71-18.62-82.58-18.62-104.11,0-188.8,84.7-188.8,188.8s84.7,188.8,188.8,188.8,188.8-84.7,188.8-188.8c0-49.01-12.47-88.66-46.42-123.99l7.28-8.34,30.5,1.21c30.45,44.99,42.63,74.24,42.63,131.12s-23.18,115.46-65.26,157.55c-42.08,42.08-98.03,65.26-157.55,65.26Z"/>
  <path d="M275.95,473.13c-80.3,0-145.63-65.33-145.63-145.63s65.33-145.63,145.63-145.63c9.87,0,40.31,1.5,49.16,7.89l-26.64,28.38c-7.35-1.5-14.93-2.27-22.51-2.27-61.55,0-111.63,50.08-111.63,111.63s50.08,111.63,111.63,111.63,111.63-50.08,111.63-111.63c0-24.23-10.44-49.81-24.87-69.17l24.82-23.35c20.89,22.61,34.05,60.91,34.05,92.52,0,80.3-65.33,145.63-145.63,145.63Z"/>
  <path d="M393.65,151.51l-116.03,117.49s-11.98,11.11-10.23,22.5l-.18,31.27,146.89-148.47,55.82-.29s13.74-.29,19.87-7.89l52.9-55.24s12.86-17.54-6.72-21.04l-52.9,1.46s-11.69,1.46-10.23-9.35l.88-54.65s-4.68-17.54-20.46-6.72l-56.11,51.14s-11.4,13.74-7.01,27.47l3.51,52.31Z"/>
  <path d="M251.79,267.51s-60.98,24.48-35.24,88.62c0,0,23,50.64,80.81,34.6,0,0,48.95-15.19,43.68-72.37,0,0-3.8-18.99-11.39-25.32l-52.54,51.48s-23,20.04-31.23-11.82l.63-42.41s-1.27-16.46,5.27-22.79Z"/>
</svg>