<?xml version="1.0" encoding="UTF-8"?>
<svg id="Layer_1" data-name="Layer 1" xmlns="http://www.w3.org/2000/svg" viewBox="0 0 600 600">
  <rect x="61.5" y="378.26" width="84.75" height="160.3" rx="11.5" ry="11.5"/>
  <rect x="323" y="314.22" width="84.75" height="224.34" rx="11.5" ry="11.5"/>
  <rect x="192.26" y="270.84" width="84.75" height="266.73" rx="11.5" ry="11.5"/>
  <rect x="453.74" y="178.15" width="84.75" height="363.65" rx="11.5" ry="11.5"/>
  <path d="M356.07,266.23c21.97,0,39.78-17.81,39.78-39.78,0-6.52-1.58-12.67-4.36-18.11l90.43-93.49c5.01,2.28,10.57,3.56,16.44,3.56,21.97,0,39.78-17.81,39.78-39.78s-17.81-39.78-39.78-39.78-39.78,17.81-39.78,39.78c0,6.33,1.49,12.32,4.12,17.63l-90.67,93.74c-4.88-2.14-10.27-3.34-15.95-3.34-12.04,0-22.83,5.36-30.12,13.81l-54.33-27.16c.14-1.34.21-2.71.21-4.09,0-21.97-17.81-39.78-39.78-39.78s-39.78,17.81-39.78,39.78c0,6.3,1.47,12.25,4.08,17.55-.06.05-.13.1-.19.16l-75.59,70.14c-5.48-2.84-11.69-4.45-18.29-4.45-21.97,0-39.78,17.81-39.78,39.78s17.81,39.78,39.78,39.78,39.78-17.81,39.78-39.78c0-5.6-1.16-10.93-3.25-15.77l75.54-70.1c.4-.37.75-.76,1.08-1.17,5.06,2.33,10.69,3.64,16.62,3.64,10.94,0,20.84-4.42,28.04-11.56l56.23,28.11c0,.3-.02.59-.02.89,0,21.97,17.81,39.78,39.78,39.78Z"/>
</svg>