<?xml version="1.0" encoding="UTF-8"?>
<svg id="Layer_1" data-name="Layer 1" xmlns="http://www.w3.org/2000/svg" viewBox="0 0 600 600">
  <defs>
    <style>
      .cls-1 {
        fill: #fff;
      }
    </style>
  </defs>
  <path class="cls-1" d="M422.13,357.22l132.29,132.87s10.49,10.78-3.21,26.81l-36.72,35.84s-19.81,9.03-28.56-3.21l-122.68-132.58,58.86-59.73Z"/>
  <path class="cls-1" d="M318.48,261.35l-45.26,46.62s-5.83,9.62-10.49,0c-4.66-9.62,0,2.04,0,2.04l-82.46-86.25s-18.36-17.77-49.24,0c0,0-19.52,9.91-9.03,37.01,0,0,1.46,7.58-6.41,13.11l-23.6,23.6s-11.95,7.87-24.19-.87l-50.41-51.58s-10.49-12.82,0-24.48l22.73-25.06s11.07-6.7,18.94,0c0,0,41.38-3.21,35.26-45.75l74.89-74.6s59.44-55.36,147.73-18.36c0,0,30.3,12.53,37.01,20.4,0,0,7.87,10.78-13.99,13.7,0,0-36.42,4.95-54.78,2.91,0,0-71.1,4.08-50.7,69.35,0,0,2.33,15.44,23.89,32.93l60.12,65.27Z"/>
  <path class="cls-1" d="M581.59,165.23s-4.36-3.59-7.69,2.31l-48.19,48.19s-13.07,16.4-31.01,1.28l-33.32-32.55s-17.43-22.81-.51-38.19l49.47-49.21s2.56-7.95-9.23-8.71c0,0-51.01-12.3-94.07,29.48,0,0-41.27,40.24-19.22,99.71,0,0,4.3,9.42-1.7,14.45l-237.31,243.79s-16.49,42.4,18.25,61.83c0,0,27.75,11.35,45.43-3.26l227.36-234.79s6.66-12.3,29.73-2.82c0,0,65.87,14.35,101.25-44.09,0,0,28.2-39.22,10.77-87.41ZM188.91,511.53c-8.57,0-15.52-6.88-15.52-15.36s6.95-15.36,15.52-15.36,15.52,6.88,15.52,15.36-6.95,15.36-15.52,15.36Z"/>
</svg>