<?xml version="1.0" encoding="UTF-8"?>
<svg id="Bear" xmlns="http://www.w3.org/2000/svg" viewBox="0 0 600 600">
  <defs>
    <style>
      .cls-1 {
        fill: #fff;
      }
    </style>
  </defs>
  <path class="cls-1" d="M507.74,335.65h-54.18s-15.63,2.6-36.99,12.5c0,0-23.96,8.86-30.21,10.68,0,0-25.01,1.82-25.01,41.68,0,0-.52,13.02,2.87,21.88,0,0,0,4.69-7.81,0,0,0-4.43-1.82-4.43-3.13s7.55,53.66-14.85,81.53c0,0-6.25-13.8-8.6-15.89,0,0-1.3,45.84-35.42,70.33v-20.58s-25.27,46.36-46.1,45.84c0,0-4.43.78-6.25-3.91,0,0-13.28-26.05-14.33-32.82,0,0-21.1-66.16-59.65-112.52-38.55-46.36-68.76-76.58-68.76-76.58,0,0-48.71-56.78-54.7-92.47,0,0,8.86-45.06,61.73-106.79,0,0,29.69-35.94,55.74-53.4,0,0,12.25-7.05,9.9-9.52,0,0-2.09-71.09,48.09-72.14,0,0,29-4.04,48.54,34.77,0,0,33.6-3.39,55.22,3.13,0,0,17.19-27.61,43.76-18.49,0,0,21.62,3.91,20.06,42.46,0,0,67.98,34.9,84.39,61.21,0,0,3.65,6.25,3.65,16.67,0,0,2.34,11.98,21.1,22.92,0,0,69.81,42.46,84.13,47.67,0,0,12.5,5.73,7.29,19.8,0,0-4.69,14.33-17.97,23.7,0,0-3.39,29.69-30.47,37.77,0,0-3.91,18.23-29.69,23.7"/>
</svg>