<?xml version="1.0" encoding="UTF-8"?>
<svg id="Hog" xmlns="http://www.w3.org/2000/svg" viewBox="0 0 600 600">
  <defs>
    <style>
      .cls-1 {
        fill: #010101;
      }
    </style>
  </defs>
  <path class="cls-1" d="M557.64,417.85s-4.66-1.94-10.28-2.43c0,0-9.22.19-19.01-5.24,0,0-10.86-6.31-44.62-49.76,0,0-9.12-13.68-32.59-27.74,0,0-32.5-21.05-43.17-47.82,0,0-11.83-23.38-15.42-43.65,0,0-21.2-50.86-42.98-66.89,0,0,5.58-35.02-5.58-76.49,0,0-6.45-28.23-14.29-28.05,0,0-3.66-.35-6.27,4.7,0,0-8.36,13.94-39.55,46,0,0-28.05,30.49-24.92,69.7,0,0-15.33-40.95,21.26-76.84l-26.49-24.39s-17.25-16.38-35.2-23.35c0,0,2.79,11.5,2.79,24.22,0,0-27.7-27.53-58.2-37.64,0,0,6.8,21.61,6.97,24.39s-29.8-26.14-71.96-27.53c0,0,14.46,21.08,15.16,29.8,0,0-30.32-11.5-61.51-8.71,0,0-2.27,2.09,4.53,9.23,0,0,9.52,18,6.85,17.71,0,0-76.55,161.32,26.72,455.71,0,0,.21,8.54,14.18-1.55,0,0,21.53-11.06,41.52-36.67,0,0,2.91,3.4-.58,15.23,0,0-2.62,11.16,5.82,4.85,0,0,26.97-15.62,32.59-33.76,0,0,2.43,2.43,3.59,18.33,0,0,1.55,3.98,6.11-1.36,0,0,16.2-18.43,22.89-29.2,0,0,9.41-13.1,22.8-13,0,0,10.09-3.01,33.08,1.84,0,0-4.85,9.22-11.25,11.83,0,0,8.92,6.6,38.22,3.4,0,0,14.07-2.91,14.84-3.78,0,0,4.56-.78,4.56-.1,0,0-2.43,5.14-13.58,13.97,0,0,2.81,2.91,11.83,2.33,0,0,20.27-1.26,38.22-9.6,0,0,17.46-7.76,30.27-7.18,0,0,12.22-.29,32.3,9.41,0,0,13.68,7.66,28.81,5.14,0,0,16.39-3.2,22.6-6.6,0,0,17.95-7.08,19.3-9.89,0,0,1.07-.97,3.1,1.75,0,0,18.62,10.96,24.54,5.72,0,0,7.18-5.63,9.02-8.54l32.98-45.79s9.51-15.23,0-21.73ZM444.94,450.47s-12.7-18.3-51.17-22.22c0,0,18.3-4.48,35.67,1.68,0,0,26.52-5.04,29.51-46.13,0,0,20.36,32.12-8.59,62.93,0,0,19.05,16.99,32.31,33.61,0,0-19.61-11.58-37.72-29.88Z"/>
</svg>