<?xml version="1.0" encoding="UTF-8"?>
<svg id="Deer" xmlns="http://www.w3.org/2000/svg" viewBox="0 0 600 600">
  <defs>
    <style>
      .cls-1 {
        fill: #fff;
      }
    </style>
  </defs>
  <path class="cls-1" d="M402.52,398.86s-7.46,23.5-39.91,13.05c0,0-8.95-5.22-24.24-3.36,0,0-3.36,0-1.86,16.41,0,0,10.82,89.14-32.45,138.74,0,0-11.93,25.36-26.48,27.97,0,0-10.44.75-19.77-13.8,0,0-4.48-6.71-7.09-9.32,0,0-47.37-36.18-64.89-85.78,0,0-8.95-14.55-3.73-19.39,0,0,5.22-11.93,10.44-17.53,0,0,5.59-9.7,5.59-17.16,0,0,16.04-72.73,26.11-99.58,0,0,3.36-17.16-13.43-19.77,0,0-44.75-2.61-57.81-46.99,0,0-11.93-30.96-6.34-39.53,0,0,1.86-2.98,11.93,0,0,0,45.87,1.86,72.73,39.91,0,0,8.21,11.56,12.68,5.59,0,0,5.59.37,2.98-6.34,0,0-5.59-11.19-18.27-20.51,0,0-10.07-7.83-20.14-12.68,0,0-47.37-19.77-60.79-45.87,0,0-23.87-27.6-10.82-95.85,0,0,6.71-59.3,41.03-81.3,0,0,4.85-.37-4.48,15.29,0,0-22.75,37.3-20.51,93.98,0,0-2.61,23.5,17.53-1.12,0,0,8.95-13.43,11.56-24.99,0,0,13.05-33.19,26.11-47.37,0,0,15.29-18.65,23.5-19.02,0,0,5.97,2.24-4.1,11.56,0,0-14.92,16.78-19.39,35.8,0,0-8.95,20.14-4.48,25.73,0,0-.37,6.34,16.78,0,0,0,37.67-11.93,40.28-13.43l30.96-14.17s12.31-2.98.37,7.46c0,0-10.44,13.8-29.09,22.38,0,0-29.09,16.04-45.5,21.63,0,0-54.45,20.51-51.47,43.64,0,0,1.86,22,52.21,43.64,0,0,16.04,8.21,13.05-3.36,0,0,2.24-41.03,11.56-46.25,0,0,.37-3.73,4.1-1.86,0,0,1.86,4.85.37,14.92,0,0-4.48,53.71,28.34,75.34,0,0,4.85,7.09,13.43,2.98,0,0,10.82-2.98,20.14,1.49,0,0,5.22,1.49,12.31-20.14,0,0,11.93-25.73,4.1-67.13,0,0-1.86-10.82,2.24-11.56,0,0,6.71,2.98,8.58,13.8,0,0,7.83,16.78,7.46,36.55,0,0,.37,8.95,2.24,8.95,0,0,7.46-1.86,13.43-9.7,0,0,19.39-19.02,22-22.38,0,0,17.53-31.33-.75-104.05,0,0-13.43-35.06-11.19-38.79,0,0,2.24-2.98,5.97,4.48,0,0,18.27,20.51,24.99,51.84,0,0,8.21,35.06,5.97,58.93,0,0-.75,16.04,10.82,9.32,0,0,14.55-3.73,17.53-34.31,0,0,4.1-77.57-10.07-105.55,0,0-1.86-7.83,3.36-5.97,0,0,13.05,7.09,22,53.33,0,0,4.48,38.04,3.73,63.4,0,0-.37,7.46,8.21-1.49,0,0,14.17-20.14,8.58-59.3,0,0-3.35-12.68,1.31-11.19,0,0,2.8-2.98,7.64,11.93,0,0,23.5,51.84-11.93,85.41,0,0-7.46,10.07-46.62,30.58,0,0-61.16,27.97-75.71,69,0,0-3.36,18.27,8.58,1.12,0,0,17.16-31.7,63.78-40.28,0,0,9.32-4.48,13.43,0,0,0,5.59,2.24-1.12,19.39,0,0-3.36,58.18-58.18,60.42,0,0-4.85-.32-1.12,6.18,0,0,.72,7.23-2.26,14.17,0,0-1.59,3.18,6.55,10.32,0,0,10.72,13.89,17.47,21.44,0,0,11.71,10.12,15.88,14.29,0,0,13.94,23.74-5.93,35.79Z"/>
</svg>