<?xml version="1.0" encoding="UTF-8"?>
<svg id="Moose" xmlns="http://www.w3.org/2000/svg" viewBox="0 0 600 600">
  <defs>
    <style>
      .cls-1 {
        fill: #fff;
      }
    </style>
  </defs>
  <path class="cls-1" d="M232.23,300.98s-45.14,40.6-92.44,56.13c0,0-42.52,10.75-40.84,23.41,0,0-3.34,1.67,10.27,15.53,0,0,34.87,28.9,66.64,112.98,0,0,14.09,43.71,21.26,70.22,0,0,7.17,20.3,21.26,5.02,0,0,34.16-20.06,64.01-74.52,0,0,21.74-43.47,28.66-43.95,0,0,2.63,3.82,2.39,27.47,0,0,.96,35.11,31.53,40.6,0,0,1.91-14.09,5.25-20.54l8.36-21.26v10.51s17.44,2.63,20.78-36.31c0,0,9.79,12.42,15.53-7.17,0,0,3.86-20.9,11.59-26.81.2-.15.39-.29.59-.42,8.12-5.25,31.77-3.58,38.69,6.45,0,0,24.6,28.9,45.14,9.08,0,0,9.32-6.69,9.32-8.36s25.8,10.27,33.68-7.4c0,0,7.88-4.06-5.73-48.73,0,0-14.57-53.26-86.46-67.59,0,0-39.65-10.27-54.7-28.9,0,0-2.39-6.69-24.6-15.76,0,0-17.2-9.55,7.4-15.05,0,0,61.86-9.79,92.44-39.65,0,0,40.84-41.8,25.56-65.45,0,0-5.49-.72-9.08,9.08,0,0-9.55,21.26-31.29,33.2,0,0,16.72-46.58,10.75-61.62,0,0-6.93-17.67-15.29,19.11,0,0-20.78,54.94-45.14,67.12,0,0-27.95,14.81-44.43,13.14,0,0,67.12-32.24,69.51-120.14,0,0-4.54-17.44-11.46-3.34,0,0-31.05,83.84-59.95,86.46,0,0-21.26,8.36-11.46-42.99,0,0,10.75-39.17,7.88-83.36,0,0-7.17-16-12.9,0,0,0-14.57,91.48-31.77,87.18,0,0-15.29,5.97-20.3-56.13,0,0-.48-65.68-5.25-76.19,0,0-8.12-15.53-14.57,7.17,0,0-5.02,27.95-6.69,69.03,0,0-6.93,27.95-20.54,1.19,0,0-9.79-18.15-20.06-54.94,0,0-5.02-50.4-19.11-30.57,0,0-4.3,14.33,3.11,49.44,0,0,6.69,46.34-14.81,32.24,0,0-7.88,4.06-48.49-62.34,0,0-7.4-18.87-18.63-12.18,0,0-3.11,8.6,6.45,25.08,0,0,26.99,53.74-4.3,33.44,0,0-19.35-11.94-34.16-33.44,0,0-11.7-9.79-8.6,9.08,0,0,6.69,69.03,117.04,144.98,0,0,39.17,24.36,61.86,31.29,0,0,33.92,19.35,28.42,35.11,0,0-4.3,1.19-9.08-4.3,0,0-45.86-39.89-86.7-19.35,0,0-.96,32.72,43.47,58.04Z"/>
</svg>